<svg t="1726835194422" class="icon" viewBox="0 0 1073 1024" version="1.1" xmlns="http://www.w3.org/2000/svg" p-id="12080" width="200" height="200"><path d="M886.634146 149.853659h-113.639024c-8.491707-76.924878-62.68878-149.853659-148.604878-149.853659h-149.853659c-82.669268 0-160.842927 70.181463-173.080975 149.853659H187.317073C83.918049 149.853659 0 233.771707 0 337.170732v499.512195C0 940.081951 83.918049 1024 187.317073 1024h699.317073c103.399024 0 187.317073-83.918049 187.317074-187.317073v-499.512195C1073.95122 233.771707 990.033171 149.853659 886.634146 149.853659zM474.536585 74.926829h149.853659c39.960976 0 65.93561 35.465366 72.92878 74.92683H378.380488c12.238049-39.211707 54.946341-74.926829 96.156097-74.92683zM187.317073 224.780488h699.317073c61.939512 0 112.390244 50.450732 112.390244 112.390244V424.585366H74.926829v-87.414634C74.926829 275.23122 125.377561 224.780488 187.317073 224.780488zM424.585366 499.512195h224.780488v124.878049h-224.780488v-124.878049z m462.04878 449.560976h-699.317073C125.377561 949.073171 74.926829 898.622439 74.926829 836.682927V499.512195h274.731708v162.341464c0 20.729756 16.733659 37.463415 37.463414 37.463414h299.707317c20.729756 0 37.463415-16.733659 37.463415-37.463414V499.512195h274.731707v337.170732c0 61.939512-50.450732 112.390244-112.390244 112.390244z" fill="#5c72cd" p-id="12081"></path></svg>